<svg xmlns="http://www.w3.org/2000/svg" width="1280" height="260" viewBox="0 0 1280 260" role="img" aria-label="Astra DB Plugin">
  <defs>
    <linearGradient id="g" x1="0" y1="0" x2="1" y2="1">
      <stop offset="0" stop-color="#7C3AED"/>
      <stop offset="1" stop-color="#A78BFA"/>
    </linearGradient>
    <linearGradient id="t" x1="0" y1="0" x2="1" y2="0">
      <stop offset="0" stop-color="#7C3AED"/>
      <stop offset="1" stop-color="#A78BFA"/>
    </linearGradient>
  </defs>
  <!-- orbit motif -->
  <g transform="translate(150 130)">
    <ellipse cx="0" cy="0" rx="112" ry="42" fill="none" stroke="#A78BFA" stroke-width="2" opacity="0.55" transform="rotate(-22)"/>
    <ellipse cx="0" cy="0" rx="112" ry="42" fill="none" stroke="#7C3AED" stroke-width="2" opacity="0.35" transform="rotate(38)"/>
    <circle cx="0" cy="0" r="38" fill="url(#g)"/>
    <circle cx="0" cy="0" r="38" fill="none" stroke="#C4B5FD" stroke-width="1.5" opacity="0.7"/>
    <!-- vector points -->
    <circle cx="-96" cy="-44" r="5" fill="#A78BFA"/>
    <circle cx="104" cy="20" r="5" fill="#A78BFA"/>
    <circle cx="-30" cy="88" r="5" fill="#7C3AED"/>
    <circle cx="72" cy="-80" r="4" fill="#C4B5FD"/>
    <line x1="-96" y1="-44" x2="-30" y2="-18" stroke="#A78BFA" stroke-width="1.5" opacity="0.6"/>
    <line x1="104" y1="20" x2="36" y2="8" stroke="#A78BFA" stroke-width="1.5" opacity="0.6"/>
    <line x1="-30" y1="88" x2="-12" y2="36" stroke="#7C3AED" stroke-width="1.5" opacity="0.6"/>
    <line x1="72" y1="-80" x2="28" y2="-26" stroke="#C4B5FD" stroke-width="1.5" opacity="0.6"/>
  </g>
  <!-- title -->
  <text x="320" y="118" font-family="-apple-system, BlinkMacSystemFont, 'Segoe UI', Helvetica, Arial, sans-serif" font-size="60" font-weight="700" fill="url(#t)" letter-spacing="-1">Astra DB Plugin</text>
  <text x="322" y="164" font-family="-apple-system, BlinkMacSystemFont, 'Segoe UI', Helvetica, Arial, sans-serif" font-size="23" fill="#8B8F98">Agent-native tooling for Astra DB &amp; HCD.</text>
  <text x="322" y="196" font-family="-apple-system, BlinkMacSystemFont, 'Segoe UI', Helvetica, Arial, sans-serif" font-size="23" fill="#8B8F98">Native packaging for Claude Code · OpenAI Codex / ChatGPT · IBM Bob.</text>
</svg>
